<svg width="46" height="47" viewBox="0 0 46 47" fill="none" xmlns="http://www.w3.org/2000/svg">
<path d="M11.3323 6.57133C11.8941 4.25444 15.1892 4.25443 15.7511 6.57133L17.2969 12.9464C17.4975 13.7736 18.1434 14.4195 18.9706 14.6201L25.3457 16.1659C27.6626 16.7278 27.6626 20.0229 25.3457 20.5847L18.9706 22.1306C18.1434 22.3312 17.4975 22.977 17.2969 23.8042L15.7511 30.1793C15.1892 32.4962 11.8941 32.4962 11.3323 30.1793L9.78641 23.8042C9.58583 22.977 8.93997 22.3312 8.11277 22.1306L1.73767 20.5847C-0.579223 20.0229 -0.579225 16.7278 1.73767 16.1659L8.11277 14.6201C8.93997 14.4195 9.58583 13.7736 9.78641 12.9464L11.3323 6.57133Z" fill="#919294"/>
<path d="M29.8904 28.8197C30.2361 27.3939 32.2639 27.3939 32.6096 28.8197L33.5609 32.7428C33.6844 33.2518 34.0818 33.6493 34.5909 33.7727L38.514 34.724C39.9398 35.0698 39.9398 37.0976 38.514 37.4433L34.5909 38.3946C34.0818 38.518 33.6844 38.9155 33.5609 39.4245L32.6096 43.3477C32.2639 44.7734 30.2361 44.7734 29.8904 43.3477L28.9391 39.4245C28.8156 38.9155 28.4182 38.518 27.9091 38.3946L23.986 37.4433C22.5602 37.0976 22.5602 35.0698 23.986 34.724L27.9091 33.7727C28.4182 33.6493 28.8156 33.2518 28.9391 32.7428L29.8904 28.8197Z" fill="#919294"/>
<path d="M36.6077 6.31666C36.8346 5.38099 38.1654 5.38099 38.3923 6.31666L39.0165 8.89122C39.0976 9.22528 39.3584 9.48611 39.6924 9.56711L42.267 10.1914C43.2027 10.4183 43.2027 11.749 42.267 11.9759L39.6924 12.6002C39.3584 12.6812 39.0976 12.942 39.0165 13.2761L38.3923 15.8507C38.1654 16.7863 36.8346 16.7863 36.6077 15.8507L35.9835 13.2761C35.9025 12.942 35.6416 12.6812 35.3076 12.6002L32.733 11.9759C31.7973 11.749 31.7973 10.4183 32.733 10.1914L35.3076 9.56711C35.6416 9.48611 35.9025 9.22528 35.9835 8.89122L36.6077 6.31666Z" fill="#919294"/>
<path fill-rule="evenodd" clip-rule="evenodd" d="M37.5 6.77344L36.9905 8.87473C36.7868 9.71466 36.131 10.3705 35.2911 10.5741L33.1898 11.0837L35.2911 11.5932C36.131 11.7969 36.7868 12.4527 36.9905 13.2926L37.5 15.3939L38.0095 13.2926C38.2132 12.4527 38.869 11.7969 39.7089 11.5932L41.8102 11.0837L39.7089 10.5741C38.869 10.3705 38.2132 9.71466 38.0095 8.87473L37.5 6.77344ZM38.5197 5.63566C38.2604 4.56632 36.7396 4.56633 36.4803 5.63566L35.7668 8.57801C35.6742 8.9598 35.3761 9.25789 34.9944 9.35046L32.052 10.0639C30.9827 10.3232 30.9827 11.8441 32.052 12.1034L34.9944 12.8169C35.3761 12.9094 35.6742 13.2075 35.7668 13.5893L36.4803 16.5317C36.7396 17.601 38.2604 17.601 38.5197 16.5317L39.2332 13.5893C39.3258 13.2075 39.6239 12.9094 40.0056 12.8169L42.948 12.1034C44.0173 11.8441 44.0173 10.3232 42.948 10.0639L40.0056 9.35046C39.6239 9.25789 39.3258 8.9598 39.2332 8.57801L38.5197 5.63566Z" fill="#919294"/>
<path d="M12.5 46.5003C11.3494 46.5003 10.4167 45.5676 10.4167 44.417C10.4167 43.2664 11.3494 42.3337 12.5 42.3337C13.6506 42.3337 14.5833 43.2664 14.5833 44.417C14.5833 45.5676 13.6506 46.5003 12.5 46.5003Z" fill="#919294"/>
<path d="M2.08333 38.167C0.93274 38.167 -5.0294e-08 37.2343 0 36.0837C5.0294e-08 34.9331 0.93274 34.0003 2.08333 34.0003C3.23393 34.0003 4.16667 34.9331 4.16667 36.0837C4.16667 37.2343 3.23393 38.167 2.08333 38.167Z" fill="#919294"/>
<path d="M25 4.83366C23.8494 4.83366 22.9167 3.90092 22.9167 2.75033C22.9167 1.59973 23.8494 0.666992 25 0.666992C26.1506 0.666992 27.0833 1.59973 27.0833 2.75033C27.0833 3.90092 26.1506 4.83366 25 4.83366Z" fill="#919294"/>
<path d="M43.75 27.7503C42.5994 27.7503 41.6667 26.8176 41.6667 25.667C41.6667 24.5164 42.5994 23.5837 43.75 23.5837C44.9006 23.5837 45.8333 24.5164 45.8333 25.667C45.8333 26.8176 44.9006 27.7503 43.75 27.7503Z" fill="#919294"/>
</svg>
