<svg width="34" height="42" viewBox="0 0 34 42" fill="none" xmlns="http://www.w3.org/2000/svg">
<path fill-rule="evenodd" clip-rule="evenodd" d="M10.2083 0.166992H23.0625C28.7083 0.166992 33.2708 2.39616 33.3333 8.06283V39.6878C33.3333 40.042 33.25 40.3962 33.0833 40.7087C32.8125 41.2087 32.3542 41.5837 31.7917 41.7503C31.25 41.917 30.6458 41.8337 30.1458 41.542L16.6458 34.792L3.125 41.542C2.81458 41.7066 2.45833 41.8128 2.10417 41.8128C0.9375 41.8128 0 40.8545 0 39.6878V8.06283C0 2.39616 4.58333 0.166992 10.2083 0.166992ZM8.79167 16.042H24.4792C25.375 16.042 26.1042 15.3107 26.1042 14.3962C26.1042 13.4795 25.375 12.7503 24.4792 12.7503H8.79167C7.89583 12.7503 7.16667 13.4795 7.16667 14.3962C7.16667 15.3107 7.89583 16.042 8.79167 16.042Z" fill="#919294"/>
</svg>
