<svg width="40" height="42" viewBox="0 0 40 42" fill="none" xmlns="http://www.w3.org/2000/svg">
<path d="M13.8225 39.1111V32.7409C13.8225 31.1147 15.1504 29.7965 16.7884 29.7965H22.7763C23.5629 29.7965 24.3173 30.1067 24.8735 30.6589C25.4297 31.211 25.7422 31.96 25.7422 32.7409V39.1111C25.7373 39.7872 26.0043 40.4372 26.4841 40.917C26.9639 41.3968 27.6168 41.6667 28.2978 41.6666H32.383C34.2909 41.6716 36.1224 40.9226 37.4733 39.585C38.8241 38.2474 39.5833 36.4312 39.5833 34.5371V16.3893C39.5833 14.8593 38.9001 13.408 37.718 12.4264L23.8209 1.40806C21.4035 -0.52383 17.9398 -0.461454 15.5946 1.55621L2.01461 12.4264C0.776543 13.3791 0.0365673 14.8347 0 16.3893V34.5186C0 38.4664 3.22371 41.6666 7.20036 41.6666H11.1923C12.6067 41.6667 13.7562 40.5338 13.7665 39.1296L13.8225 39.1111Z" fill="#919294"/>
</svg>
