<svg width="34" height="43" viewBox="0 0 34 43" fill="none" xmlns="http://www.w3.org/2000/svg">
<path d="M27.0833 0.5C23.6312 0.5 20.8333 3.29792 20.8333 6.75C20.8333 7.28542 20.9187 7.95209 21.0458 8.44792L9.89372 16.2312C8.8958 15.5562 7.54374 15.0833 6.24999 15.0833C2.79791 15.0833 0 17.8812 0 21.3333C0 24.7854 2.79791 27.5833 6.24999 27.5833C7.56665 27.5833 8.86666 27.0938 9.875 26.4L21.05 34.2458C20.9125 34.7604 20.8333 35.3583 20.8333 35.9167C20.8333 39.3687 23.6312 42.1667 27.0833 42.1667C30.5354 42.1667 33.3333 39.3687 33.3333 35.9167C33.3333 32.4646 30.5354 29.6667 27.0833 29.6667C25.7666 29.6667 24.4833 30.1417 23.477 30.8375L12.2729 22.9979C12.4083 22.4834 12.5 21.8917 12.5 21.3333C12.5 20.775 12.4208 20.1729 12.2833 19.6584L23.4604 11.8417C24.4583 12.5146 25.7895 13 27.0833 13C30.5354 13 33.3333 10.2021 33.3333 6.75C33.3333 3.29792 30.5354 0.5 27.0833 0.5Z" fill="#919294"/>
</svg>
